<svg xmlns="http://www.w3.org/2000/svg" width="458" height="184" viewBox="0 0 458 184" role="img" aria-labelledby="title desc">
  <title id="title">Cesium Ion generated token screen</title>
  <desc id="desc">Illustration of the Cesium Ion token details view showing the token name field and the generated token value ready to be copied.</desc>
  <rect width="458" height="184" fill="#ffffff"/>
  <text x="8" y="22" font-family="Segoe UI, Arial, sans-serif" font-size="14" fill="#1f2c3b">Name</text>
  <rect x="8" y="31" width="442" height="30" rx="4" fill="#ffffff" stroke="#b7c5d5"/>
  <text x="23" y="51" font-family="Segoe UI, Arial, sans-serif" font-size="14" fill="#29496a">RFSim</text>
  <line x1="43" y1="39" x2="43" y2="56" stroke="#c44" stroke-width="1"/>
  <line x1="43" y1="56" x2="39" y2="59" stroke="#c44" stroke-width="1"/>
  <line x1="43" y1="56" x2="47" y2="59" stroke="#c44" stroke-width="1"/>

  <text x="8" y="86" font-family="Segoe UI, Arial, sans-serif" font-size="14" fill="#1f2c3b">Token</text>
  <rect x="8" y="98" width="419" height="74" rx="4" fill="#f8fbfe" stroke="#95a8bb"/>
  <text x="22" y="121" font-family="Consolas, 'Courier New', monospace" font-size="11" fill="#23384d">eyJhbGciOiJIUzI1NiIsInR5cCI6IkpXVCJ9.eyJqdGkiOiJ</text>
  <text x="22" y="140" font-family="Consolas, 'Courier New', monospace" font-size="11" fill="#23384d">hMjczYjVkYy0lOTNmLTRlYmQtOGM0Zi1kYjcyOGZmOTY2ZmQ</text>
  <text x="22" y="159" font-family="Consolas, 'Courier New', monospace" font-size="11" fill="#23384d">iLCJpZCI6MzMxODMxLCJpYXQiOjE3NzY5OTgwMzd9.V70Aaw</text>
  <rect x="410" y="109" width="7" height="51" rx="3.5" fill="#9ca7b3"/>
  <circle cx="413.5" cy="124" r="6" fill="#6f7b86"/>
  <g transform="translate(432,96)" fill="none" stroke="#3e4d5d" stroke-width="1.8">
    <rect x="4" y="7" width="11" height="15" rx="1.5"/>
    <path d="M1 18V4.5C1 3.1 2.1 2 3.5 2H12"/>
  </g>
</svg>