<svg xmlns="http://www.w3.org/2000/svg" viewBox="0 0 792.00 612.00" width="792.00" height="612.00">
<rect width="100%" height="100%" fill="white"/>
<path d="M 0.00 603.00 L 792.00 603.00 L 792.00 9.00 L 0.00 9.00 Z" stroke="none" fill="rgb(255,255,255)" stroke-width="1" fill-rule="evenodd" />
<path d="M 765.60 35.40 L 792.00 35.40 L 792.00 9.00 L 765.60 9.00 Z M 788.76 27.12 L 783.84 32.04 L 778.80 27.12 L 781.32 27.12 L 781.32 19.68 C 781.32 18.36 780.24 17.16 778.80 17.16 L 776.40 17.16 C 774.96 17.16 773.88 18.36 773.88 19.68 L 773.88 27.12 L 768.96 27.12 L 768.96 19.68 C 768.96 15.60 772.32 12.24 776.40 12.24 L 778.80 12.24 C 783.00 12.24 786.24 15.60 786.24 19.68 L 786.24 27.12 Z" stroke="none" fill="rgb(96,142,253)" stroke-width="1" fill-rule="evenodd" />
<path d="M 788.76 27.12 L 783.84 32.04 L 778.80 27.12 L 781.32 27.12 L 781.32 19.68 C 781.32 18.36 780.24 17.16 778.80 17.16 L 776.40 17.16 C 774.96 17.16 773.88 18.36 773.88 19.68 L 773.88 27.12 L 768.96 27.12 L 768.96 19.68 C 768.96 15.60 772.32 12.24 776.40 12.24 L 778.80 12.24 C 783.00 12.24 786.24 15.60 786.24 19.68 L 786.24 27.12 Z" stroke="none" fill="rgb(58,86,151)" stroke-width="1" fill-rule="evenodd" />
<path d="M 348.36 438.60 L 347.76 438.72 L 347.16 438.72 L 346.56 438.84 L 345.72 438.96 L 344.88 439.20 L 343.92 439.56 L 342.96 439.92 L 341.88 440.64 L 340.68 441.48 L 339.60 442.68 L 338.52 444.12 L 337.80 445.56 L 337.32 446.64 L 336.96 447.84 L 336.84 449.04 L 336.84 450.12 L 335.88 450.12 L 334.92 450.24 L 334.20 450.36 L 333.24 450.72 L 332.04 451.08 L 330.84 451.80 L 329.64 452.64 L 328.56 453.60 L 327.72 454.68 L 326.88 455.88 L 326.28 457.08 L 325.80 458.52 L 325.56 459.60 L 325.44 460.68 L 325.44 461.64 L 325.44 462.60 L 325.56 463.68 L 325.80 464.76 L 326.40 466.20 L 327.00 467.40 L 327.84 468.60 L 328.68 469.56 L 329.64 470.52 L 330.84 471.36 L 332.16 471.96 L 333.24 472.44 L 334.32 472.80 L 335.16 472.92 L 335.88 473.04 L 336.84 473.04 L 336.84 474.36 L 336.96 474.96 L 337.08 475.68 L 337.32 476.40 L 337.68 477.48 L 338.40 478.92 L 339.48 480.36 L 340.56 481.68 L 341.76 482.52 L 342.84 483.24 L 343.80 483.72 L 344.76 484.08 L 345.72 484.32 L 346.56 484.44 L 347.16 484.56 L 347.76 484.56 L 348.24 484.56 L 348.84 484.56 L 350.16 484.44 L 350.52 484.32 L 351.00 484.20 L 351.96 483.96 L 352.92 483.60 L 353.76 483.12 L 354.84 482.52 L 356.04 481.56 L 357.24 480.36 L 358.20 478.80 L 358.92 477.48 L 359.28 476.52 L 359.52 475.44 L 359.64 474.72 L 359.76 473.88 L 359.76 473.04 L 360.60 473.04 L 361.20 472.92 L 362.28 472.80 L 363.36 472.44 L 364.56 472.08 L 365.76 471.36 L 366.96 470.52 L 368.04 469.56 L 368.88 468.60 L 369.72 467.40 L 370.32 466.20 L 370.80 464.76 L 371.16 463.68 L 371.28 462.48 L 371.28 461.52 L 371.28 460.56 L 371.04 459.48 L 370.92 458.40 L 370.44 456.96 L 369.72 455.76 L 368.88 454.56 L 368.04 453.48 L 368.04 453.60 L 366.96 452.64 L 365.76 451.80 L 364.56 451.08 L 363.36 450.60 L 362.28 450.36 L 361.56 450.24 L 360.72 450.12 L 359.76 450.12 L 359.76 448.80 L 359.52 447.24 L 359.16 446.16 L 358.08 444.24 L 357.12 442.68 L 355.92 441.48 L 354.72 440.64 L 353.76 440.04 L 352.80 439.56 L 351.84 439.20 L 351.00 438.96 L 350.04 438.84 L 349.44 438.72 L 348.84 438.72 L 348.36 438.60 Z" stroke="none" fill="rgb(255,255,128)" stroke-width="1" fill-rule="evenodd" />
<path d="M 348.36 438.60 L 347.76 438.72 L 347.16 438.72 L 346.56 438.84 L 345.72 438.96 L 344.88 439.20 L 343.92 439.56 L 342.96 439.92 L 341.88 440.64 L 340.68 441.48 L 339.60 442.68 L 338.52 444.12 L 337.80 445.56 L 337.32 446.64 L 336.96 447.84 L 336.84 449.04 L 336.84 450.12 L 335.88 450.12 L 334.92 450.24 L 334.20 450.36 L 333.24 450.72 L 332.04 451.08 L 330.84 451.80 L 329.64 452.64 L 328.56 453.60 L 327.72 454.68 L 326.88 455.88 L 326.28 457.08 L 325.80 458.52 L 325.56 459.60 L 325.44 460.68 L 325.44 461.64 L 325.44 462.60 L 325.56 463.68 L 325.80 464.76 L 326.40 466.20 L 327.00 467.40 L 327.84 468.60 L 328.68 469.56 L 329.64 470.52 L 330.84 471.36 L 332.16 471.96 L 333.24 472.44 L 334.32 472.80 L 335.16 472.92 L 335.88 473.04 L 336.84 473.04 L 336.84 474.36 L 336.96 474.96 L 337.08 475.68 L 337.32 476.40 L 337.68 477.48 L 338.40 478.92 L 339.48 480.36 L 340.56 481.68 L 341.76 482.52 L 342.84 483.24 L 343.80 483.72 L 344.76 484.08 L 345.72 484.32 L 346.56 484.44 L 347.16 484.56 L 347.76 484.56 L 348.24 484.56 L 348.84 484.56 L 350.16 484.44 L 350.52 484.32 L 351.00 484.20 L 351.96 483.96 L 352.92 483.60 L 353.76 483.12 L 354.84 482.52 L 356.04 481.56 L 357.24 480.36 L 358.20 478.80 L 358.92 477.48 L 359.28 476.52 L 359.52 475.44 L 359.64 474.72 L 359.76 473.88 L 359.76 473.04 L 360.60 473.04 L 361.20 472.92 L 362.28 472.80 L 363.36 472.44 L 364.56 472.08 L 365.76 471.36 L 366.96 470.52 L 368.04 469.56 L 368.88 468.60 L 369.72 467.40 L 370.32 466.20 L 370.80 464.76 L 371.16 463.68 L 371.28 462.48 L 371.28 461.52 L 371.28 460.56 L 371.04 459.48 L 370.92 458.40 L 370.44 456.96 L 369.72 455.76 L 368.88 454.56 L 368.04 453.48 L 368.04 453.60 L 366.96 452.64 L 365.76 451.80 L 364.56 451.08 L 363.36 450.60 L 362.28 450.36 L 361.56 450.24 L 360.72 450.12 L 359.76 450.12 L 359.76 448.80 L 359.52 447.24 L 359.16 446.16 L 358.08 444.24 L 357.12 442.68 L 355.92 441.48 L 354.72 440.64 L 353.76 440.04 L 352.80 439.56 L 351.84 439.20 L 351.00 438.96 L 350.04 438.84 L 349.44 438.72 L 348.84 438.72 L 348.36 438.60 Z" stroke="rgb(0,0,0)" fill="none" stroke-width="3.36" fill-rule="evenodd" />
<path d="M 443.40 477.24 L 490.80 477.24 L 490.80 445.68 L 443.40 445.68 Z" stroke="none" fill="rgb(128,255,255)" stroke-width="1" fill-rule="evenodd" />
<path d="M 443.40 477.24 L 490.80 477.24 L 490.80 445.68 L 443.40 445.68 Z" stroke="rgb(0,0,0)" fill="none" stroke-width="3.36" fill-rule="evenodd" />
<path d="M 562.32 478.92 L 597.12 478.92 L 597.12 444.12 L 562.32 444.12 Z" stroke="none" fill="rgb(170,255,170)" stroke-width="1" fill-rule="evenodd" />
<path d="M 562.32 478.92 L 597.12 478.92 L 597.12 444.12 L 562.32 444.12 Z" stroke="rgb(0,0,0)" fill="none" stroke-width="3.36" fill-rule="evenodd" />
<path d="M 692.88 484.56 L 669.96 461.64 L 692.88 438.60 L 715.92 461.64 L 692.88 484.56 Z" stroke="none" fill="rgb(255,128,128)" stroke-width="1" fill-rule="evenodd" />
<path d="M 692.88 484.56 L 669.96 461.64 L 692.88 438.60 L 715.92 461.64 L 692.88 484.56 Z" stroke="rgb(0,0,0)" fill="none" stroke-width="3.36" fill-rule="evenodd" />
<path d="M 348.36 333.36 L 347.76 333.36 L 347.16 333.36 L 346.56 333.48 L 345.72 333.60 L 344.88 333.84 L 343.92 334.20 L 342.96 334.68 L 341.88 335.28 L 340.68 336.24 L 339.60 337.32 L 338.52 338.76 L 337.80 340.20 L 337.32 341.28 L 336.96 342.60 L 336.84 343.68 L 336.84 344.76 L 335.88 344.76 L 334.92 344.88 L 334.20 345.00 L 333.24 345.36 L 332.04 345.84 L 330.84 346.44 L 329.64 347.40 L 328.56 348.24 L 327.72 349.32 L 326.88 350.52 L 326.28 351.72 L 325.80 353.28 L 325.56 354.24 L 325.44 355.32 L 325.44 356.28 L 325.44 357.36 L 325.56 358.44 L 325.80 359.52 L 326.40 360.84 L 327.00 362.16 L 327.84 363.24 L 328.68 364.20 L 329.64 365.16 L 330.84 366.12 L 332.16 366.72 L 333.24 367.20 L 334.32 367.44 L 335.16 367.68 L 335.88 367.68 L 336.84 367.80 L 336.84 369.00 L 336.96 369.60 L 337.08 370.32 L 337.32 371.04 L 337.68 372.12 L 338.40 373.56 L 339.48 375.00 L 340.56 376.32 L 341.76 377.16 L 342.84 377.88 L 343.80 378.36 L 344.76 378.72 L 345.72 378.96 L 346.56 379.08 L 347.16 379.20 L 347.76 379.20 L 348.24 379.20 L 348.84 379.20 L 350.16 379.08 L 350.52 378.96 L 351.00 378.84 L 351.96 378.72 L 352.92 378.24 L 353.76 377.88 L 354.84 377.16 L 356.04 376.20 L 357.24 375.00 L 358.20 373.56 L 358.92 372.12 L 359.28 371.16 L 359.52 370.08 L 359.64 369.36 L 359.76 368.64 L 359.76 367.80 L 360.60 367.68 L 361.20 367.68 L 362.28 367.44 L 363.36 367.20 L 364.56 366.72 L 365.76 366.12 L 366.96 365.16 L 368.04 364.32 L 368.88 363.24 L 369.72 362.04 L 370.32 360.84 L 370.80 359.40 L 371.16 358.32 L 371.28 357.24 L 371.28 356.28 L 371.28 355.32 L 371.04 354.12 L 370.92 353.16 L 370.44 351.60 L 369.72 350.40 L 368.88 349.20 L 368.04 348.24 L 368.04 348.24 L 366.96 347.28 L 365.76 346.44 L 364.56 345.84 L 363.36 345.36 L 362.28 345.00 L 361.56 344.88 L 360.72 344.88 L 359.76 344.76 L 359.76 343.56 L 359.52 341.88 L 359.16 340.92 L 358.08 338.88 L 357.12 337.32 L 355.92 336.24 L 354.72 335.28 L 353.76 334.68 L 352.80 334.20 L 351.84 333.84 L 351.00 333.60 L 350.04 333.48 L 349.44 333.36 L 348.84 333.36 L 348.36 333.36 Z" stroke="none" fill="rgb(255,255,128)" stroke-width="1" fill-rule="evenodd" />
<path d="M 348.36 333.36 L 347.76 333.36 L 347.16 333.36 L 346.56 333.48 L 345.72 333.60 L 344.88 333.84 L 343.92 334.20 L 342.96 334.68 L 341.88 335.28 L 340.68 336.24 L 339.60 337.32 L 338.52 338.76 L 337.80 340.20 L 337.32 341.28 L 336.96 342.60 L 336.84 343.68 L 336.84 344.76 L 335.88 344.76 L 334.92 344.88 L 334.20 345.00 L 333.24 345.36 L 332.04 345.84 L 330.84 346.44 L 329.64 347.40 L 328.56 348.24 L 327.72 349.32 L 326.88 350.52 L 326.28 351.72 L 325.80 353.28 L 325.56 354.24 L 325.44 355.32 L 325.44 356.28 L 325.44 357.36 L 325.56 358.44 L 325.80 359.52 L 326.40 360.84 L 327.00 362.16 L 327.84 363.24 L 328.68 364.20 L 329.64 365.16 L 330.84 366.12 L 332.16 366.72 L 333.24 367.20 L 334.32 367.44 L 335.16 367.68 L 335.88 367.68 L 336.84 367.80 L 336.84 369.00 L 336.96 369.60 L 337.08 370.32 L 337.32 371.04 L 337.68 372.12 L 338.40 373.56 L 339.48 375.00 L 340.56 376.32 L 341.76 377.16 L 342.84 377.88 L 343.80 378.36 L 344.76 378.72 L 345.72 378.96 L 346.56 379.08 L 347.16 379.20 L 347.76 379.20 L 348.24 379.20 L 348.84 379.20 L 350.16 379.08 L 350.52 378.96 L 351.00 378.84 L 351.96 378.72 L 352.92 378.24 L 353.76 377.88 L 354.84 377.16 L 356.04 376.20 L 357.24 375.00 L 358.20 373.56 L 358.92 372.12 L 359.28 371.16 L 359.52 370.08 L 359.64 369.36 L 359.76 368.64 L 359.76 367.80 L 360.60 367.68 L 361.20 367.68 L 362.28 367.44 L 363.36 367.20 L 364.56 366.72 L 365.76 366.12 L 366.96 365.16 L 368.04 364.32 L 368.88 363.24 L 369.72 362.04 L 370.32 360.84 L 370.80 359.40 L 371.16 358.32 L 371.28 357.24 L 371.28 356.28 L 371.28 355.32 L 371.04 354.12 L 370.92 353.16 L 370.44 351.60 L 369.72 350.40 L 368.88 349.20 L 368.04 348.24 L 368.04 348.24 L 366.96 347.28 L 365.76 346.44 L 364.56 345.84 L 363.36 345.36 L 362.28 345.00 L 361.56 344.88 L 360.72 344.88 L 359.76 344.76 L 359.76 343.56 L 359.52 341.88 L 359.16 340.92 L 358.08 338.88 L 357.12 337.32 L 355.92 336.24 L 354.72 335.28 L 353.76 334.68 L 352.80 334.20 L 351.84 333.84 L 351.00 333.60 L 350.04 333.48 L 349.44 333.36 L 348.84 333.36 L 348.36 333.36 Z" stroke="rgb(0,0,0)" fill="none" stroke-width="3.36" fill-rule="evenodd" />
<path d="M 332.28 345.96 L 364.32 366.84" stroke="rgb(0,0,0)" fill="none" stroke-width="1.44" fill-rule="evenodd" />
<path d="M 333.12 366.84 L 364.32 346.32" stroke="rgb(0,0,0)" fill="none" stroke-width="1.44" fill-rule="evenodd" />
<path d="M 443.40 372.00 L 490.80 372.00 L 490.80 340.32 L 443.40 340.32 Z" stroke="none" fill="rgb(128,255,255)" stroke-width="1" fill-rule="evenodd" />
<path d="M 443.40 372.00 L 490.80 372.00 L 490.80 340.32 L 443.40 340.32 Z" stroke="rgb(0,0,0)" fill="none" stroke-width="3.36" fill-rule="evenodd" />
<path d="M 443.76 341.16 L 490.44 371.28" stroke="rgb(0,0,0)" fill="none" stroke-width="1.44" fill-rule="evenodd" />
<path d="M 490.56 341.16 L 443.52 371.28" stroke="rgb(0,0,0)" fill="none" stroke-width="1.44" fill-rule="evenodd" />
<path d="M 562.32 373.56 L 597.12 373.56 L 597.12 338.76 L 562.32 338.76 Z" stroke="none" fill="rgb(170,255,170)" stroke-width="1" fill-rule="evenodd" />
<path d="M 562.32 373.56 L 597.12 373.56 L 597.12 338.76 L 562.32 338.76 Z" stroke="rgb(0,0,0)" fill="none" stroke-width="3.36" fill-rule="evenodd" />
<path d="M 563.16 339.96 L 596.16 372.60" stroke="rgb(0,0,0)" fill="none" stroke-width="1.44" fill-rule="evenodd" />
<path d="M 596.16 339.96 L 563.16 372.60" stroke="rgb(0,0,0)" fill="none" stroke-width="1.44" fill-rule="evenodd" />
<path d="M 692.88 379.20 L 669.96 356.28 L 692.88 333.36 L 715.92 356.28 L 692.88 379.20 Z" stroke="none" fill="rgb(255,128,128)" stroke-width="1" fill-rule="evenodd" />
<path d="M 692.88 379.20 L 669.96 356.28 L 692.88 333.36 L 715.92 356.28 L 692.88 379.20 Z" stroke="rgb(0,0,0)" fill="none" stroke-width="3.36" fill-rule="evenodd" />
<path d="M 681.60 345.00 L 704.16 367.56" stroke="rgb(0,0,0)" fill="none" stroke-width="1.44" fill-rule="evenodd" />
<path d="M 704.28 345.00 L 681.36 367.68" stroke="rgb(0,0,0)" fill="none" stroke-width="1.44" fill-rule="evenodd" />
<path d="M 348.36 280.68 L 347.76 280.68 L 347.16 280.68 L 346.56 280.80 L 345.72 280.92 L 344.88 281.16 L 343.92 281.52 L 342.96 282.00 L 341.88 282.60 L 340.68 283.56 L 339.60 284.64 L 338.52 286.08 L 337.80 287.52 L 337.32 288.72 L 336.96 289.92 L 336.84 291.00 L 336.84 292.08 L 335.88 292.08 L 334.92 292.32 L 334.20 292.44 L 333.24 292.68 L 332.04 293.16 L 330.84 293.88 L 329.64 294.72 L 328.56 295.68 L 327.72 296.64 L 326.88 297.84 L 326.28 299.16 L 325.80 300.60 L 325.56 301.56 L 325.44 302.64 L 325.44 303.60 L 325.44 304.68 L 325.56 305.76 L 325.80 306.84 L 326.40 308.16 L 327.00 309.48 L 327.84 310.56 L 328.68 311.52 L 329.64 312.60 L 330.84 313.44 L 332.16 314.04 L 333.24 314.52 L 334.32 314.76 L 335.16 315.00 L 335.88 315.00 L 336.84 315.12 L 336.84 316.32 L 336.96 316.92 L 337.08 317.64 L 337.32 318.36 L 337.68 319.44 L 338.40 320.88 L 339.48 322.44 L 340.56 323.64 L 341.76 324.60 L 342.84 325.20 L 343.80 325.68 L 344.76 326.04 L 345.72 326.28 L 346.56 326.40 L 347.16 326.52 L 347.76 326.52 L 348.24 326.52 L 348.84 326.52 L 350.16 326.40 L 350.52 326.40 L 351.00 326.28 L 351.96 326.04 L 352.92 325.68 L 353.76 325.20 L 354.84 324.48 L 356.04 323.64 L 357.24 322.32 L 358.20 320.88 L 358.92 319.56 L 359.28 318.48 L 359.52 317.52 L 359.64 316.80 L 359.76 315.96 L 359.76 315.12 L 360.60 315.00 L 361.20 315.00 L 362.28 314.76 L 363.36 314.52 L 364.56 314.04 L 365.76 313.44 L 366.96 312.60 L 368.04 311.64 L 368.88 310.56 L 369.72 309.36 L 370.32 308.16 L 370.80 306.72 L 371.16 305.64 L 371.28 304.56 L 371.28 303.60 L 371.28 302.64 L 371.04 301.44 L 370.92 300.48 L 370.44 299.04 L 369.72 297.72 L 368.88 296.52 L 368.04 295.56 L 368.04 295.56 L 366.96 294.60 L 365.76 293.76 L 364.56 293.16 L 363.36 292.68 L 362.28 292.44 L 361.56 292.20 L 360.72 292.20 L 359.76 292.20 L 359.76 290.88 L 359.52 289.20 L 359.16 288.24 L 358.08 286.20 L 357.12 284.64 L 355.92 283.56 L 354.72 282.60 L 353.76 282.00 L 352.80 281.52 L 351.84 281.16 L 351.00 280.92 L 350.04 280.80 L 349.44 280.68 L 348.84 280.68 L 348.36 280.68 Z" stroke="none" fill="rgb(255,255,128)" stroke-width="1" fill-rule="evenodd" />
<path d="M 348.36 280.68 L 347.76 280.68 L 347.16 280.68 L 346.56 280.80 L 345.72 280.92 L 344.88 281.16 L 343.92 281.52 L 342.96 282.00 L 341.88 282.60 L 340.68 283.56 L 339.60 284.64 L 338.52 286.08 L 337.80 287.52 L 337.32 288.72 L 336.96 289.92 L 336.84 291.00 L 336.84 292.08 L 335.88 292.08 L 334.92 292.32 L 334.20 292.44 L 333.24 292.68 L 332.04 293.16 L 330.84 293.88 L 329.64 294.72 L 328.56 295.68 L 327.72 296.64 L 326.88 297.84 L 326.28 299.16 L 325.80 300.60 L 325.56 301.56 L 325.44 302.64 L 325.44 303.60 L 325.44 304.68 L 325.56 305.76 L 325.80 306.84 L 326.40 308.16 L 327.00 309.48 L 327.84 310.56 L 328.68 311.52 L 329.64 312.60 L 330.84 313.44 L 332.16 314.04 L 333.24 314.52 L 334.32 314.76 L 335.16 315.00 L 335.88 315.00 L 336.84 315.12 L 336.84 316.32 L 336.96 316.92 L 337.08 317.64 L 337.32 318.36 L 337.68 319.44 L 338.40 320.88 L 339.48 322.44 L 340.56 323.64 L 341.76 324.60 L 342.84 325.20 L 343.80 325.68 L 344.76 326.04 L 345.72 326.28 L 346.56 326.40 L 347.16 326.52 L 347.76 326.52 L 348.24 326.52 L 348.84 326.52 L 350.16 326.40 L 350.52 326.40 L 351.00 326.28 L 351.96 326.04 L 352.92 325.68 L 353.76 325.20 L 354.84 324.48 L 356.04 323.64 L 357.24 322.32 L 358.20 320.88 L 358.92 319.56 L 359.28 318.48 L 359.52 317.52 L 359.64 316.80 L 359.76 315.96 L 359.76 315.12 L 360.60 315.00 L 361.20 315.00 L 362.28 314.76 L 363.36 314.52 L 364.56 314.04 L 365.76 313.44 L 366.96 312.60 L 368.04 311.64 L 368.88 310.56 L 369.72 309.36 L 370.32 308.16 L 370.80 306.72 L 371.16 305.64 L 371.28 304.56 L 371.28 303.60 L 371.28 302.64 L 371.04 301.44 L 370.92 300.48 L 370.44 299.04 L 369.72 297.72 L 368.88 296.52 L 368.04 295.56 L 368.04 295.56 L 366.96 294.60 L 365.76 293.76 L 364.56 293.16 L 363.36 292.68 L 362.28 292.44 L 361.56 292.20 L 360.72 292.20 L 359.76 292.20 L 359.76 290.88 L 359.52 289.20 L 359.16 288.24 L 358.08 286.20 L 357.12 284.64 L 355.92 283.56 L 354.72 282.60 L 353.76 282.00 L 352.80 281.52 L 351.84 281.16 L 351.00 280.92 L 350.04 280.80 L 349.44 280.68 L 348.84 280.68 L 348.36 280.68 Z" stroke="rgb(0,0,0)" fill="none" stroke-width="3.36" fill-rule="evenodd" />
<path d="M 332.28 293.28 L 364.32 314.16" stroke="rgb(0,0,0)" fill="none" stroke-width="1.44" fill-rule="evenodd" />
<path d="M 333.12 314.16 L 364.32 293.76" stroke="rgb(0,0,0)" fill="none" stroke-width="1.44" fill-rule="evenodd" />
<path d="M 443.40 319.32 L 490.80 319.32 L 490.80 287.64 L 443.40 287.64 Z" stroke="none" fill="rgb(128,255,255)" stroke-width="1" fill-rule="evenodd" />
<path d="M 443.40 319.32 L 490.80 319.32 L 490.80 287.64 L 443.40 287.64 Z" stroke="rgb(0,0,0)" fill="none" stroke-width="3.36" fill-rule="evenodd" />
<path d="M 443.76 288.48 L 490.44 318.60" stroke="rgb(0,0,0)" fill="none" stroke-width="1.44" fill-rule="evenodd" />
<path d="M 490.56 288.48 L 443.52 318.60" stroke="rgb(0,0,0)" fill="none" stroke-width="1.44" fill-rule="evenodd" />
<path d="M 562.32 320.88 L 597.12 320.88 L 597.12 286.20 L 562.32 286.20 Z" stroke="none" fill="rgb(170,255,170)" stroke-width="1" fill-rule="evenodd" />
<path d="M 562.32 320.88 L 597.12 320.88 L 597.12 286.20 L 562.32 286.20 Z" stroke="rgb(0,0,0)" fill="none" stroke-width="3.36" fill-rule="evenodd" />
<path d="M 563.16 287.28 L 596.16 319.92" stroke="rgb(0,0,0)" fill="none" stroke-width="1.44" fill-rule="evenodd" />
<path d="M 596.16 287.28 L 563.16 319.92" stroke="rgb(0,0,0)" fill="none" stroke-width="1.44" fill-rule="evenodd" />
<path d="M 692.88 326.52 L 669.96 303.60 L 692.88 280.68 L 715.92 303.60 L 692.88 326.52 Z" stroke="none" fill="rgb(255,128,128)" stroke-width="1" fill-rule="evenodd" />
<path d="M 692.88 326.52 L 669.96 303.60 L 692.88 280.68 L 715.92 303.60 L 692.88 326.52 Z" stroke="rgb(0,0,0)" fill="none" stroke-width="3.36" fill-rule="evenodd" />
<path d="M 681.60 292.32 L 704.16 314.88" stroke="rgb(0,0,0)" fill="none" stroke-width="1.44" fill-rule="evenodd" />
<path d="M 704.28 292.32 L 681.36 315.00" stroke="rgb(0,0,0)" fill="none" stroke-width="1.44" fill-rule="evenodd" />
<path d="M 348.36 175.08 L 347.76 175.08 L 347.16 175.08 L 346.56 175.20 L 345.72 175.32 L 344.88 175.56 L 343.92 175.92 L 342.96 176.40 L 341.88 177.00 L 340.68 177.96 L 339.60 179.04 L 338.52 180.48 L 337.80 181.92 L 337.32 183.12 L 336.96 184.32 L 336.84 185.40 L 336.84 186.48 L 335.88 186.48 L 334.92 186.72 L 334.20 186.84 L 333.24 187.08 L 332.04 187.56 L 330.84 188.28 L 329.64 189.12 L 328.56 190.08 L 327.72 191.04 L 326.88 192.24 L 326.28 193.56 L 325.80 195.00 L 325.56 195.96 L 325.44 197.04 L 325.44 198.00 L 325.44 199.08 L 325.56 200.16 L 325.80 201.24 L 326.40 202.56 L 327.00 203.88 L 327.84 204.96 L 328.68 205.92 L 329.64 207.00 L 330.84 207.84 L 332.16 208.44 L 333.24 208.92 L 334.32 209.16 L 335.16 209.40 L 335.88 209.40 L 336.84 209.52 L 336.84 210.72 L 336.96 211.32 L 337.08 212.04 L 337.32 212.76 L 337.68 213.84 L 338.40 215.28 L 339.48 216.84 L 340.56 218.04 L 341.76 219.00 L 342.84 219.60 L 343.80 220.08 L 344.76 220.44 L 345.72 220.68 L 346.56 220.80 L 347.16 220.92 L 347.76 220.92 L 348.24 220.92 L 348.84 220.92 L 350.16 220.80 L 350.52 220.80 L 351.00 220.68 L 351.96 220.44 L 352.92 220.08 L 353.76 219.60 L 354.84 218.88 L 356.04 218.04 L 357.24 216.72 L 358.20 215.28 L 358.92 213.96 L 359.28 212.88 L 359.52 211.92 L 359.64 211.20 L 359.76 210.36 L 359.76 209.52 L 360.60 209.40 L 361.20 209.40 L 362.28 209.16 L 363.36 208.92 L 364.56 208.44 L 365.76 207.84 L 366.96 207.00 L 368.04 206.04 L 368.88 204.96 L 369.72 203.76 L 370.32 202.56 L 370.80 201.12 L 371.16 200.04 L 371.28 198.96 L 371.28 198.00 L 371.28 197.04 L 371.04 195.84 L 370.92 194.88 L 370.44 193.44 L 369.72 192.12 L 368.88 190.92 L 368.04 189.96 L 368.04 189.96 L 366.96 189.00 L 365.76 188.16 L 364.56 187.56 L 363.36 187.08 L 362.28 186.84 L 361.56 186.60 L 360.72 186.60 L 359.76 186.60 L 359.76 185.28 L 359.52 183.60 L 359.16 182.64 L 358.08 180.60 L 357.12 179.04 L 355.92 177.96 L 354.72 177.00 L 353.76 176.40 L 352.80 175.92 L 351.84 175.56 L 351.00 175.32 L 350.04 175.20 L 349.44 175.08 L 348.84 175.08 L 348.36 175.08 Z" stroke="none" fill="rgb(255,255,128)" stroke-width="1" fill-rule="evenodd" />
<path d="M 348.36 175.08 L 347.76 175.08 L 347.16 175.08 L 346.56 175.20 L 345.72 175.32 L 344.88 175.56 L 343.92 175.92 L 342.96 176.40 L 341.88 177.00 L 340.68 177.96 L 339.60 179.04 L 338.52 180.48 L 337.80 181.92 L 337.32 183.12 L 336.96 184.32 L 336.84 185.40 L 336.84 186.48 L 335.88 186.48 L 334.92 186.72 L 334.20 186.84 L 333.24 187.08 L 332.04 187.56 L 330.84 188.28 L 329.64 189.12 L 328.56 190.08 L 327.72 191.04 L 326.88 192.24 L 326.28 193.56 L 325.80 195.00 L 325.56 195.96 L 325.44 197.04 L 325.44 198.00 L 325.44 199.08 L 325.56 200.16 L 325.80 201.24 L 326.40 202.56 L 327.00 203.88 L 327.84 204.96 L 328.68 205.92 L 329.64 207.00 L 330.84 207.84 L 332.16 208.44 L 333.24 208.92 L 334.32 209.16 L 335.16 209.40 L 335.88 209.40 L 336.84 209.52 L 336.84 210.72 L 336.96 211.32 L 337.08 212.04 L 337.32 212.76 L 337.68 213.84 L 338.40 215.28 L 339.48 216.84 L 340.56 218.04 L 341.76 219.00 L 342.84 219.60 L 343.80 220.08 L 344.76 220.44 L 345.72 220.68 L 346.56 220.80 L 347.16 220.92 L 347.76 220.92 L 348.24 220.92 L 348.84 220.92 L 350.16 220.80 L 350.52 220.80 L 351.00 220.68 L 351.96 220.44 L 352.92 220.08 L 353.76 219.60 L 354.84 218.88 L 356.04 218.04 L 357.24 216.72 L 358.20 215.28 L 358.92 213.96 L 359.28 212.88 L 359.52 211.92 L 359.64 211.20 L 359.76 210.36 L 359.76 209.52 L 360.60 209.40 L 361.20 209.40 L 362.28 209.16 L 363.36 208.92 L 364.56 208.44 L 365.76 207.84 L 366.96 207.00 L 368.04 206.04 L 368.88 204.96 L 369.72 203.76 L 370.32 202.56 L 370.80 201.12 L 371.16 200.04 L 371.28 198.96 L 371.28 198.00 L 371.28 197.04 L 371.04 195.84 L 370.92 194.88 L 370.44 193.44 L 369.72 192.12 L 368.88 190.92 L 368.04 189.96 L 368.04 189.96 L 366.96 189.00 L 365.76 188.16 L 364.56 187.56 L 363.36 187.08 L 362.28 186.84 L 361.56 186.60 L 360.72 186.60 L 359.76 186.60 L 359.76 185.28 L 359.52 183.60 L 359.16 182.64 L 358.08 180.60 L 357.12 179.04 L 355.92 177.96 L 354.72 177.00 L 353.76 176.40 L 352.80 175.92 L 351.84 175.56 L 351.00 175.32 L 350.04 175.20 L 349.44 175.08 L 348.84 175.08 L 348.36 175.08 Z" stroke="rgb(0,0,0)" fill="none" stroke-width="3.36" fill-rule="evenodd" />
<path d="M 332.28 187.68 L 364.32 208.56" stroke="rgb(0,0,0)" fill="none" stroke-width="1.44" fill-rule="evenodd" />
<path d="M 333.12 208.56 L 364.32 188.16" stroke="rgb(0,0,0)" fill="none" stroke-width="1.44" fill-rule="evenodd" />
<path d="M 343.20 182.52 L 353.76 182.52 L 348.24 195.24 L 342.96 182.52 L 343.20 182.52 Z" stroke="none" fill="rgb(0,0,0)" stroke-width="1" fill-rule="evenodd" />
<path d="M 343.20 182.52 L 353.76 182.52 L 348.24 195.24 L 342.96 182.52 L 343.20 182.52" stroke="rgb(0,0,0)" fill="none" stroke-width="1.44" fill-rule="evenodd" />
<path d="M 348.36 122.40 L 347.76 122.40 L 347.16 122.40 L 346.56 122.52 L 345.72 122.64 L 344.88 123.00 L 343.92 123.24 L 342.96 123.72 L 341.88 124.32 L 340.68 125.28 L 339.60 126.36 L 338.52 127.92 L 337.80 129.24 L 337.32 130.44 L 336.96 131.64 L 336.84 132.72 L 336.84 133.80 L 335.88 133.80 L 334.92 134.04 L 334.20 134.16 L 333.24 134.40 L 332.04 134.88 L 330.84 135.60 L 329.64 136.44 L 328.56 137.40 L 327.72 138.36 L 326.88 139.56 L 326.28 140.88 L 325.80 142.32 L 325.56 143.28 L 325.44 144.36 L 325.44 145.32 L 325.44 146.40 L 325.56 147.48 L 325.80 148.56 L 326.40 149.88 L 327.00 151.20 L 327.84 152.40 L 328.68 153.36 L 329.64 154.32 L 330.84 155.16 L 332.16 155.76 L 333.24 156.24 L 334.32 156.60 L 335.16 156.72 L 335.88 156.72 L 336.84 156.84 L 336.84 158.04 L 336.96 158.76 L 337.08 159.48 L 337.32 160.08 L 337.68 161.16 L 338.40 162.60 L 339.48 164.16 L 340.56 165.36 L 341.76 166.32 L 342.84 166.92 L 343.80 167.40 L 344.76 167.76 L 345.72 168.00 L 346.56 168.12 L 347.16 168.24 L 347.76 168.36 L 348.24 168.36 L 348.84 168.36 L 350.16 168.12 L 350.52 168.12 L 351.00 168.00 L 351.96 167.76 L 352.92 167.40 L 353.76 166.92 L 354.84 166.20 L 356.04 165.36 L 357.24 164.04 L 358.20 162.60 L 358.92 161.28 L 359.28 160.20 L 359.52 159.24 L 359.64 158.52 L 359.76 157.68 L 359.76 156.84 L 360.60 156.72 L 361.20 156.72 L 362.28 156.48 L 363.36 156.24 L 364.56 155.76 L 365.76 155.16 L 366.96 154.32 L 368.04 153.36 L 368.88 152.40 L 369.72 151.20 L 370.32 149.88 L 370.80 148.44 L 371.16 147.36 L 371.28 146.28 L 371.28 145.32 L 371.28 144.36 L 371.04 143.28 L 370.92 142.20 L 370.44 140.76 L 369.72 139.44 L 368.88 138.24 L 368.04 137.28 L 368.04 137.28 L 366.96 136.32 L 365.76 135.48 L 364.56 134.88 L 363.36 134.40 L 362.28 134.16 L 361.56 133.92 L 360.72 133.92 L 359.76 133.92 L 359.76 132.60 L 359.52 130.92 L 359.16 129.96 L 358.08 127.92 L 357.12 126.36 L 355.92 125.28 L 354.72 124.32 L 353.76 123.72 L 352.80 123.36 L 351.84 123.00 L 351.00 122.64 L 350.04 122.52 L 349.44 122.40 L 348.84 122.40 L 348.36 122.40 Z" stroke="none" fill="rgb(255,255,128)" stroke-width="1" fill-rule="evenodd" />
<path d="M 348.36 122.40 L 347.76 122.40 L 347.16 122.40 L 346.56 122.52 L 345.72 122.64 L 344.88 123.00 L 343.92 123.24 L 342.96 123.72 L 341.88 124.32 L 340.68 125.28 L 339.60 126.36 L 338.52 127.92 L 337.80 129.24 L 337.32 130.44 L 336.96 131.64 L 336.84 132.72 L 336.84 133.80 L 335.88 133.80 L 334.92 134.04 L 334.20 134.16 L 333.24 134.40 L 332.04 134.88 L 330.84 135.60 L 329.64 136.44 L 328.56 137.40 L 327.72 138.36 L 326.88 139.56 L 326.28 140.88 L 325.80 142.32 L 325.56 143.28 L 325.44 144.36 L 325.44 145.32 L 325.44 146.40 L 325.56 147.48 L 325.80 148.56 L 326.40 149.88 L 327.00 151.20 L 327.84 152.40 L 328.68 153.36 L 329.64 154.32 L 330.84 155.16 L 332.16 155.76 L 333.24 156.24 L 334.32 156.60 L 335.16 156.72 L 335.88 156.72 L 336.84 156.84 L 336.84 158.04 L 336.96 158.76 L 337.08 159.48 L 337.32 160.08 L 337.68 161.16 L 338.40 162.60 L 339.48 164.16 L 340.56 165.36 L 341.76 166.32 L 342.84 166.92 L 343.80 167.40 L 344.76 167.76 L 345.72 168.00 L 346.56 168.12 L 347.16 168.24 L 347.76 168.36 L 348.24 168.36 L 348.84 168.36 L 350.16 168.12 L 350.52 168.12 L 351.00 168.00 L 351.96 167.76 L 352.92 167.40 L 353.76 166.92 L 354.84 166.20 L 356.04 165.36 L 357.24 164.04 L 358.20 162.60 L 358.92 161.28 L 359.28 160.20 L 359.52 159.24 L 359.64 158.52 L 359.76 157.68 L 359.76 156.84 L 360.60 156.72 L 361.20 156.72 L 362.28 156.48 L 363.36 156.24 L 364.56 155.76 L 365.76 155.16 L 366.96 154.32 L 368.04 153.36 L 368.88 152.40 L 369.72 151.20 L 370.32 149.88 L 370.80 148.44 L 371.16 147.36 L 371.28 146.28 L 371.28 145.32 L 371.28 144.36 L 371.04 143.28 L 370.92 142.20 L 370.44 140.76 L 369.72 139.44 L 368.88 138.24 L 368.04 137.28 L 368.04 137.28 L 366.96 136.32 L 365.76 135.48 L 364.56 134.88 L 363.36 134.40 L 362.28 134.16 L 361.56 133.92 L 360.72 133.92 L 359.76 133.92 L 359.76 132.60 L 359.52 130.92 L 359.16 129.96 L 358.08 127.92 L 357.12 126.36 L 355.92 125.28 L 354.72 124.32 L 353.76 123.72 L 352.80 123.36 L 351.84 123.00 L 351.00 122.64 L 350.04 122.52 L 349.44 122.40 L 348.84 122.40 L 348.36 122.40 Z" stroke="rgb(0,0,0)" fill="none" stroke-width="3.36" fill-rule="evenodd" />
<path d="M 332.28 135.00 L 364.32 155.88" stroke="rgb(0,0,0)" fill="none" stroke-width="1.44" fill-rule="evenodd" />
<path d="M 333.12 155.88 L 364.32 135.48" stroke="rgb(0,0,0)" fill="none" stroke-width="1.44" fill-rule="evenodd" />
<path d="M 348.48 134.16 L 348.36 134.76 L 348.24 135.36 L 348.00 135.84 L 347.64 136.32 L 347.16 136.80 L 346.68 137.16 L 346.20 137.40 L 345.48 137.64 L 344.88 137.76 L 344.04 137.88 L 343.08 137.76 L 342.36 137.64 L 341.64 137.28 L 340.92 136.80 L 340.44 136.20 L 340.08 135.60 L 339.72 135.00 L 339.72 134.28" stroke="rgb(0,0,0)" fill="none" stroke-width="1.44" fill-rule="evenodd" />
<path d="M 357.12 134.16 L 357.12 134.76 L 357.00 135.36 L 356.64 135.84 L 356.28 136.32 L 355.80 136.80 L 355.32 137.16 L 354.84 137.40 L 354.12 137.64 L 353.52 137.76 L 352.68 137.88 L 351.72 137.76 L 351.00 137.64 L 350.28 137.28 L 349.56 136.80 L 349.08 136.20 L 348.72 135.60 L 348.48 135.00 L 348.36 134.28" stroke="rgb(0,0,0)" fill="none" stroke-width="1.44" fill-rule="evenodd" />
<path d="M 348.36 69.72 L 347.76 69.72 L 347.16 69.72 L 346.56 69.84 L 345.72 69.96 L 344.88 70.32 L 343.92 70.56 L 342.96 71.04 L 341.88 71.64 L 340.68 72.60 L 339.60 73.80 L 338.52 75.24 L 337.80 76.56 L 337.32 77.76 L 336.96 78.96 L 336.84 80.04 L 336.84 81.24 L 335.88 81.24 L 334.92 81.36 L 334.20 81.48 L 333.24 81.72 L 332.04 82.20 L 330.84 82.92 L 329.64 83.76 L 328.56 84.72 L 327.72 85.68 L 326.88 86.88 L 326.28 88.20 L 325.80 89.64 L 325.56 90.72 L 325.44 91.80 L 325.44 92.64 L 325.44 93.72 L 325.56 94.80 L 325.80 95.88 L 326.40 97.32 L 327.00 98.52 L 327.84 99.72 L 328.68 100.68 L 329.64 101.64 L 330.84 102.48 L 332.16 103.08 L 333.24 103.56 L 334.32 103.92 L 335.16 104.04 L 335.88 104.16 L 336.84 104.16 L 336.84 105.48 L 336.96 106.08 L 337.08 106.80 L 337.32 107.40 L 337.68 108.60 L 338.40 109.92 L 339.48 111.48 L 340.56 112.68 L 341.76 113.64 L 342.84 114.24 L 343.80 114.72 L 344.76 115.08 L 345.72 115.32 L 346.56 115.56 L 347.16 115.56 L 347.76 115.68 L 348.24 115.68 L 348.84 115.68 L 350.16 115.44 L 350.52 115.44 L 351.00 115.32 L 351.96 115.08 L 352.92 114.72 L 353.76 114.24 L 354.84 113.64 L 356.04 112.68 L 357.24 111.48 L 358.20 109.92 L 358.92 108.60 L 359.28 107.64 L 359.52 106.56 L 359.64 105.84 L 359.76 105.00 L 359.76 104.16 L 360.60 104.16 L 361.20 104.04 L 362.28 103.92 L 363.36 103.56 L 364.56 103.08 L 365.76 102.48 L 366.96 101.64 L 368.04 100.68 L 368.88 99.72 L 369.72 98.52 L 370.32 97.20 L 370.80 95.76 L 371.16 94.68 L 371.28 93.60 L 371.28 92.64 L 371.28 91.68 L 371.04 90.60 L 370.92 89.52 L 370.44 88.08 L 369.72 86.76 L 368.88 85.56 L 368.04 84.60 L 368.04 84.60 L 366.96 83.64 L 365.76 82.80 L 364.56 82.20 L 363.36 81.72 L 362.28 81.48 L 361.56 81.36 L 360.72 81.24 L 359.76 81.24 L 359.76 79.92 L 359.52 78.36 L 359.16 77.28 L 358.08 75.24 L 357.12 73.80 L 355.92 72.60 L 354.72 71.76 L 353.76 71.04 L 352.80 70.68 L 351.84 70.32 L 351.00 70.08 L 350.04 69.84 L 349.44 69.84 L 348.84 69.72 L 348.36 69.72 Z" stroke="none" fill="rgb(255,255,128)" stroke-width="1" fill-rule="evenodd" />
<path d="M 348.36 69.72 L 347.76 69.72 L 347.16 69.72 L 346.56 69.84 L 345.72 69.96 L 344.88 70.32 L 343.92 70.56 L 342.96 71.04 L 341.88 71.64 L 340.68 72.60 L 339.60 73.80 L 338.52 75.24 L 337.80 76.56 L 337.32 77.76 L 336.96 78.96 L 336.84 80.04 L 336.84 81.24 L 335.88 81.24 L 334.92 81.36 L 334.20 81.48 L 333.24 81.72 L 332.04 82.20 L 330.84 82.92 L 329.64 83.76 L 328.56 84.72 L 327.72 85.68 L 326.88 86.88 L 326.28 88.20 L 325.80 89.64 L 325.56 90.72 L 325.44 91.80 L 325.44 92.64 L 325.44 93.72 L 325.56 94.80 L 325.80 95.88 L 326.40 97.32 L 327.00 98.52 L 327.84 99.72 L 328.68 100.68 L 329.64 101.64 L 330.84 102.48 L 332.16 103.08 L 333.24 103.56 L 334.32 103.92 L 335.16 104.04 L 335.88 104.16 L 336.84 104.16 L 336.84 105.48 L 336.96 106.08 L 337.08 106.80 L 337.32 107.40 L 337.68 108.60 L 338.40 109.92 L 339.48 111.48 L 340.56 112.68 L 341.76 113.64 L 342.84 114.24 L 343.80 114.72 L 344.76 115.08 L 345.72 115.32 L 346.56 115.56 L 347.16 115.56 L 347.76 115.68 L 348.24 115.68 L 348.84 115.68 L 350.16 115.44 L 350.52 115.44 L 351.00 115.32 L 351.96 115.08 L 352.92 114.72 L 353.76 114.24 L 354.84 113.64 L 356.04 112.68 L 357.24 111.48 L 358.20 109.92 L 358.92 108.60 L 359.28 107.64 L 359.52 106.56 L 359.64 105.84 L 359.76 105.00 L 359.76 104.16 L 360.60 104.16 L 361.20 104.04 L 362.28 103.92 L 363.36 103.56 L 364.56 103.08 L 365.76 102.48 L 366.96 101.64 L 368.04 100.68 L 368.88 99.72 L 369.72 98.52 L 370.32 97.20 L 370.80 95.76 L 371.16 94.68 L 371.28 93.60 L 371.28 92.64 L 371.28 91.68 L 371.04 90.60 L 370.92 89.52 L 370.44 88.08 L 369.72 86.76 L 368.88 85.56 L 368.04 84.60 L 368.04 84.60 L 366.96 83.64 L 365.76 82.80 L 364.56 82.20 L 363.36 81.72 L 362.28 81.48 L 361.56 81.36 L 360.72 81.24 L 359.76 81.24 L 359.76 79.92 L 359.52 78.36 L 359.16 77.28 L 358.08 75.24 L 357.12 73.80 L 355.92 72.60 L 354.72 71.76 L 353.76 71.04 L 352.80 70.68 L 351.84 70.32 L 351.00 70.08 L 350.04 69.84 L 349.44 69.84 L 348.84 69.72 L 348.36 69.72 Z" stroke="rgb(0,0,0)" fill="none" stroke-width="3.36" fill-rule="evenodd" />
<path d="M 332.28 82.32 L 364.32 103.32" stroke="rgb(0,0,0)" fill="none" stroke-width="1.44" fill-rule="evenodd" />
<path d="M 333.12 103.32 L 364.32 82.80" stroke="rgb(0,0,0)" fill="none" stroke-width="1.44" fill-rule="evenodd" />
<path d="M 341.28 107.76 L 348.36 100.68 L 355.20 107.64" stroke="rgb(0,0,0)" fill="none" stroke-width="1.44" fill-rule="evenodd" />
<path d="M 348.36 17.04 L 347.76 17.04 L 347.16 17.16 L 346.56 17.16 L 345.72 17.40 L 344.88 17.64 L 343.92 17.88 L 342.96 18.36 L 341.88 18.96 L 340.68 19.92 L 339.60 21.12 L 338.52 22.56 L 337.80 23.88 L 337.32 25.08 L 336.96 26.28 L 336.84 27.36 L 336.84 28.56 L 335.88 28.56 L 334.92 28.68 L 334.20 28.80 L 333.24 29.16 L 332.04 29.52 L 330.84 30.24 L 329.64 31.08 L 328.56 32.04 L 327.72 33.00 L 326.88 34.20 L 326.28 35.52 L 325.80 36.96 L 325.56 38.04 L 325.44 39.12 L 325.44 39.96 L 325.44 41.04 L 325.56 42.12 L 325.80 43.20 L 326.40 44.64 L 327.00 45.84 L 327.84 47.04 L 328.68 48.00 L 329.64 48.96 L 330.84 49.80 L 332.16 50.40 L 333.24 50.88 L 334.32 51.24 L 335.16 51.36 L 335.88 51.48 L 336.84 51.48 L 336.84 52.80 L 336.96 53.40 L 337.08 54.12 L 337.32 54.72 L 337.68 55.92 L 338.40 57.36 L 339.48 58.80 L 340.56 60.12 L 341.76 60.96 L 342.84 61.68 L 343.80 62.04 L 344.76 62.40 L 345.72 62.76 L 346.56 62.88 L 347.16 62.88 L 347.76 63.00 L 348.24 63.00 L 348.84 63.00 L 350.16 62.88 L 350.52 62.76 L 351.00 62.64 L 351.96 62.40 L 352.92 62.04 L 353.76 61.56 L 354.84 60.96 L 356.04 60.00 L 357.24 58.80 L 358.20 57.24 L 358.92 55.92 L 359.28 54.96 L 359.52 53.88 L 359.64 53.16 L 359.76 52.32 L 359.76 51.48 L 360.60 51.48 L 361.20 51.36 L 362.28 51.24 L 363.36 50.88 L 364.56 50.40 L 365.76 49.80 L 366.96 48.96 L 368.04 48.00 L 368.88 47.04 L 369.72 45.84 L 370.32 44.52 L 370.80 43.20 L 371.16 42.12 L 371.28 40.92 L 371.28 39.96 L 371.28 39.00 L 371.04 37.92 L 370.92 36.84 L 370.44 35.40 L 369.72 34.08 L 368.88 33.00 L 368.04 31.92 L 368.04 31.92 L 366.96 31.08 L 365.76 30.12 L 364.56 29.52 L 363.36 29.04 L 362.28 28.80 L 361.56 28.68 L 360.72 28.56 L 359.76 28.56 L 359.76 27.24 L 359.52 25.68 L 359.16 24.60 L 358.08 22.56 L 357.12 21.12 L 355.92 19.92 L 354.72 19.08 L 353.76 18.36 L 352.80 18.00 L 351.84 17.64 L 351.00 17.40 L 350.04 17.16 L 349.44 17.16 L 348.84 17.04 L 348.36 17.04 Z" stroke="none" fill="rgb(255,255,128)" stroke-width="1" fill-rule="evenodd" />
<path d="M 348.36 17.04 L 347.76 17.04 L 347.16 17.16 L 346.56 17.16 L 345.72 17.40 L 344.88 17.64 L 343.92 17.88 L 342.96 18.36 L 341.88 18.96 L 340.68 19.92 L 339.60 21.12 L 338.52 22.56 L 337.80 23.88 L 337.32 25.08 L 336.96 26.28 L 336.84 27.36 L 336.84 28.56 L 335.88 28.56 L 334.92 28.68 L 334.20 28.80 L 333.24 29.16 L 332.04 29.52 L 330.84 30.24 L 329.64 31.08 L 328.56 32.04 L 327.72 33.00 L 326.88 34.20 L 326.28 35.52 L 325.80 36.96 L 325.56 38.04 L 325.44 39.12 L 325.44 39.96 L 325.44 41.04 L 325.56 42.12 L 325.80 43.20 L 326.40 44.64 L 327.00 45.84 L 327.84 47.04 L 328.68 48.00 L 329.64 48.96 L 330.84 49.80 L 332.16 50.40 L 333.24 50.88 L 334.32 51.24 L 335.16 51.36 L 335.88 51.48 L 336.84 51.48 L 336.84 52.80 L 336.96 53.40 L 337.08 54.12 L 337.32 54.72 L 337.68 55.92 L 338.40 57.36 L 339.48 58.80 L 340.56 60.12 L 341.76 60.96 L 342.84 61.68 L 343.80 62.04 L 344.76 62.40 L 345.72 62.76 L 346.56 62.88 L 347.16 62.88 L 347.76 63.00 L 348.24 63.00 L 348.84 63.00 L 350.16 62.88 L 350.52 62.76 L 351.00 62.64 L 351.96 62.40 L 352.92 62.04 L 353.76 61.56 L 354.84 60.96 L 356.04 60.00 L 357.24 58.80 L 358.20 57.24 L 358.92 55.92 L 359.28 54.96 L 359.52 53.88 L 359.64 53.16 L 359.76 52.32 L 359.76 51.48 L 360.60 51.48 L 361.20 51.36 L 362.28 51.24 L 363.36 50.88 L 364.56 50.40 L 365.76 49.80 L 366.96 48.96 L 368.04 48.00 L 368.88 47.04 L 369.72 45.84 L 370.32 44.52 L 370.80 43.20 L 371.16 42.12 L 371.28 40.92 L 371.28 39.96 L 371.28 39.00 L 371.04 37.92 L 370.92 36.84 L 370.44 35.40 L 369.72 34.08 L 368.88 33.00 L 368.04 31.92 L 368.04 31.92 L 366.96 31.08 L 365.76 30.12 L 364.56 29.52 L 363.36 29.04 L 362.28 28.80 L 361.56 28.68 L 360.72 28.56 L 359.76 28.56 L 359.76 27.24 L 359.52 25.68 L 359.16 24.60 L 358.08 22.56 L 357.12 21.12 L 355.92 19.92 L 354.72 19.08 L 353.76 18.36 L 352.80 18.00 L 351.84 17.64 L 351.00 17.40 L 350.04 17.16 L 349.44 17.16 L 348.84 17.04 L 348.36 17.04 Z" stroke="rgb(0,0,0)" fill="none" stroke-width="3.36" fill-rule="evenodd" />
<path d="M 332.28 29.76 L 364.32 50.64" stroke="rgb(0,0,0)" fill="none" stroke-width="1.44" fill-rule="evenodd" />
<path d="M 333.12 50.64 L 364.32 30.12" stroke="rgb(0,0,0)" fill="none" stroke-width="1.44" fill-rule="evenodd" />
<path d="M 330.60 39.96 C 330.60 45.12 338.52 49.20 348.36 49.20 C 358.20 49.20 366.24 45.12 366.24 39.96 C 366.24 34.92 358.20 30.84 348.36 30.84 C 338.52 30.84 330.60 34.92 330.60 39.96" stroke="rgb(0,0,0)" fill="none" stroke-width="1.44" fill-rule="evenodd" />
<path d="M 348.36 227.76 L 347.76 227.76 L 347.16 227.76 L 346.56 227.88 L 345.72 228.00 L 344.88 228.24 L 343.92 228.60 L 342.96 229.08 L 341.88 229.68 L 340.68 230.64 L 339.60 231.72 L 338.52 233.16 L 337.80 234.60 L 337.32 235.68 L 336.96 237.00 L 336.84 238.08 L 336.84 239.16 L 335.88 239.16 L 334.92 239.28 L 334.20 239.40 L 333.24 239.76 L 332.04 240.24 L 330.84 240.84 L 329.64 241.80 L 328.56 242.64 L 327.72 243.72 L 326.88 244.92 L 326.28 246.12 L 325.80 247.68 L 325.56 248.64 L 325.44 249.72 L 325.44 250.68 L 325.44 251.76 L 325.56 252.84 L 325.80 253.92 L 326.40 255.24 L 327.00 256.56 L 327.84 257.64 L 328.68 258.60 L 329.64 259.56 L 330.84 260.52 L 332.16 261.12 L 333.24 261.60 L 334.32 261.84 L 335.16 262.08 L 335.88 262.08 L 336.84 262.20 L 336.84 263.40 L 336.96 264.00 L 337.08 264.72 L 337.32 265.44 L 337.68 266.52 L 338.40 267.96 L 339.48 269.40 L 340.56 270.72 L 341.76 271.56 L 342.84 272.28 L 343.80 272.76 L 344.76 273.12 L 345.72 273.36 L 346.56 273.48 L 347.16 273.60 L 347.76 273.60 L 348.24 273.60 L 348.84 273.60 L 350.16 273.48 L 350.52 273.36 L 351.00 273.24 L 351.96 273.12 L 352.92 272.64 L 353.76 272.28 L 354.84 271.56 L 356.04 270.60 L 357.24 269.40 L 358.20 267.96 L 358.92 266.52 L 359.28 265.56 L 359.52 264.48 L 359.64 263.76 L 359.76 263.04 L 359.76 262.20 L 360.60 262.08 L 361.20 262.08 L 362.28 261.84 L 363.36 261.60 L 364.56 261.12 L 365.76 260.52 L 366.96 259.56 L 368.04 258.72 L 368.88 257.64 L 369.72 256.44 L 370.32 255.24 L 370.80 253.80 L 371.16 252.72 L 371.28 251.64 L 371.28 250.68 L 371.28 249.72 L 371.04 248.52 L 370.92 247.56 L 370.44 246.00 L 369.72 244.80 L 368.88 243.60 L 368.04 242.64 L 368.04 242.64 L 366.96 241.68 L 365.76 240.84 L 364.56 240.24 L 363.36 239.76 L 362.28 239.40 L 361.56 239.28 L 360.72 239.28 L 359.76 239.16 L 359.76 237.96 L 359.52 236.28 L 359.16 235.32 L 358.08 233.28 L 357.12 231.72 L 355.92 230.64 L 354.72 229.68 L 353.76 229.08 L 352.80 228.60 L 351.84 228.24 L 351.00 228.00 L 350.04 227.88 L 349.44 227.76 L 348.84 227.76 L 348.36 227.76 Z" stroke="none" fill="rgb(255,255,128)" stroke-width="1" fill-rule="evenodd" />
<path d="M 348.36 227.76 L 347.76 227.76 L 347.16 227.76 L 346.56 227.88 L 345.72 228.00 L 344.88 228.24 L 343.92 228.60 L 342.96 229.08 L 341.88 229.68 L 340.68 230.64 L 339.60 231.72 L 338.52 233.16 L 337.80 234.60 L 337.32 235.68 L 336.96 237.00 L 336.84 238.08 L 336.84 239.16 L 335.88 239.16 L 334.92 239.28 L 334.20 239.40 L 333.24 239.76 L 332.04 240.24 L 330.84 240.84 L 329.64 241.80 L 328.56 242.64 L 327.72 243.72 L 326.88 244.92 L 326.28 246.12 L 325.80 247.68 L 325.56 248.64 L 325.44 249.72 L 325.44 250.68 L 325.44 251.76 L 325.56 252.84 L 325.80 253.92 L 326.40 255.24 L 327.00 256.56 L 327.84 257.64 L 328.68 258.60 L 329.64 259.56 L 330.84 260.52 L 332.16 261.12 L 333.24 261.60 L 334.32 261.84 L 335.16 262.08 L 335.88 262.08 L 336.84 262.20 L 336.84 263.40 L 336.96 264.00 L 337.08 264.72 L 337.32 265.44 L 337.68 266.52 L 338.40 267.96 L 339.48 269.40 L 340.56 270.72 L 341.76 271.56 L 342.84 272.28 L 343.80 272.76 L 344.76 273.12 L 345.72 273.36 L 346.56 273.48 L 347.16 273.60 L 347.76 273.60 L 348.24 273.60 L 348.84 273.60 L 350.16 273.48 L 350.52 273.36 L 351.00 273.24 L 351.96 273.12 L 352.92 272.64 L 353.76 272.28 L 354.84 271.56 L 356.04 270.60 L 357.24 269.40 L 358.20 267.96 L 358.92 266.52 L 359.28 265.56 L 359.52 264.48 L 359.64 263.76 L 359.76 263.04 L 359.76 262.20 L 360.60 262.08 L 361.20 262.08 L 362.28 261.84 L 363.36 261.60 L 364.56 261.12 L 365.76 260.52 L 366.96 259.56 L 368.04 258.72 L 368.88 257.64 L 369.72 256.44 L 370.32 255.24 L 370.80 253.80 L 371.16 252.72 L 371.28 251.64 L 371.28 250.68 L 371.28 249.72 L 371.04 248.52 L 370.92 247.56 L 370.44 246.00 L 369.72 244.80 L 368.88 243.60 L 368.04 242.64 L 368.04 242.64 L 366.96 241.68 L 365.76 240.84 L 364.56 240.24 L 363.36 239.76 L 362.28 239.40 L 361.56 239.28 L 360.72 239.28 L 359.76 239.16 L 359.76 237.96 L 359.52 236.28 L 359.16 235.32 L 358.08 233.28 L 357.12 231.72 L 355.92 230.64 L 354.72 229.68 L 353.76 229.08 L 352.80 228.60 L 351.84 228.24 L 351.00 228.00 L 350.04 227.88 L 349.44 227.76 L 348.84 227.76 L 348.36 227.76 Z" stroke="rgb(0,0,0)" fill="none" stroke-width="3.36" fill-rule="evenodd" />
<path d="M 332.04 240.36 L 363.96 261.24" stroke="rgb(0,0,0)" fill="none" stroke-width="1.44" fill-rule="evenodd" />
<path d="M 333.12 261.24 L 364.32 240.72" stroke="rgb(0,0,0)" fill="none" stroke-width="1.44" fill-rule="evenodd" />
<path d="M 348.36 274.08 L 348.36 227.88" stroke="rgb(0,0,0)" fill="none" stroke-width="1.44" fill-rule="evenodd" />
<path d="M 443.40 266.64 L 490.80 266.64 L 490.80 234.96 L 443.40 234.96 Z" stroke="none" fill="rgb(128,255,255)" stroke-width="1" fill-rule="evenodd" />
<path d="M 443.40 266.64 L 490.80 266.64 L 490.80 234.96 L 443.40 234.96 Z" stroke="rgb(0,0,0)" fill="none" stroke-width="3.36" fill-rule="evenodd" />
<path d="M 443.76 235.80 L 490.44 265.92" stroke="rgb(0,0,0)" fill="none" stroke-width="1.44" fill-rule="evenodd" />
<path d="M 490.56 235.80 L 443.52 265.92" stroke="rgb(0,0,0)" fill="none" stroke-width="1.44" fill-rule="evenodd" />
<path d="M 467.04 265.68 L 467.04 234.96" stroke="rgb(0,0,0)" fill="none" stroke-width="1.44" fill-rule="evenodd" />
<path d="M 562.32 268.32 L 597.12 268.32 L 597.12 233.52 L 562.32 233.52 Z" stroke="none" fill="rgb(170,255,170)" stroke-width="1" fill-rule="evenodd" />
<path d="M 562.32 268.32 L 597.12 268.32 L 597.12 233.52 L 562.32 233.52 Z" stroke="rgb(0,0,0)" fill="none" stroke-width="3.36" fill-rule="evenodd" />
<path d="M 563.16 234.60 L 596.16 267.36" stroke="rgb(0,0,0)" fill="none" stroke-width="1.44" fill-rule="evenodd" />
<path d="M 596.16 234.60 L 563.16 267.36" stroke="rgb(0,0,0)" fill="none" stroke-width="1.44" fill-rule="evenodd" />
<path d="M 579.48 267.48 L 579.48 233.52" stroke="rgb(0,0,0)" fill="none" stroke-width="1.44" fill-rule="evenodd" />
<path d="M 692.88 273.96 L 669.96 250.92 L 692.88 228.00 L 715.92 250.92 L 692.88 273.96 Z" stroke="none" fill="rgb(255,128,128)" stroke-width="1" fill-rule="evenodd" />
<path d="M 692.88 273.96 L 669.96 250.92 L 692.88 228.00 L 715.92 250.92 L 692.88 273.96 Z" stroke="rgb(0,0,0)" fill="none" stroke-width="3.36" fill-rule="evenodd" />
<path d="M 681.60 239.64 L 704.16 262.20" stroke="rgb(0,0,0)" fill="none" stroke-width="1.44" fill-rule="evenodd" />
<path d="M 704.28 239.64 L 681.36 262.32" stroke="rgb(0,0,0)" fill="none" stroke-width="1.44" fill-rule="evenodd" />
<path d="M 692.88 273.36 L 692.88 228.24" stroke="rgb(0,0,0)" fill="none" stroke-width="1.44" fill-rule="evenodd" />
<path d="M 443.40 213.96 L 490.80 213.96 L 490.80 182.28 L 443.40 182.28 Z" stroke="none" fill="rgb(128,255,255)" stroke-width="1" fill-rule="evenodd" />
<path d="M 443.40 213.96 L 490.80 213.96 L 490.80 182.28 L 443.40 182.28 Z" stroke="rgb(0,0,0)" fill="none" stroke-width="3.36" fill-rule="evenodd" />
<path d="M 443.76 183.12 L 490.44 213.24" stroke="rgb(0,0,0)" fill="none" stroke-width="1.44" fill-rule="evenodd" />
<path d="M 490.56 183.12 L 443.52 213.24" stroke="rgb(0,0,0)" fill="none" stroke-width="1.44" fill-rule="evenodd" />
<path d="M 461.88 183.48 L 472.44 183.48 L 466.80 196.20 L 461.64 183.48 L 461.88 183.48 Z" stroke="none" fill="rgb(0,0,0)" stroke-width="1" fill-rule="evenodd" />
<path d="M 461.88 183.48 L 472.44 183.48 L 466.80 196.20 L 461.64 183.48 L 461.88 183.48" stroke="rgb(0,0,0)" fill="none" stroke-width="1.44" fill-rule="evenodd" />
<path d="M 692.88 221.28 L 669.96 198.24 L 692.88 175.32 L 715.92 198.24 L 692.88 221.28 Z" stroke="none" fill="rgb(255,128,128)" stroke-width="1" fill-rule="evenodd" />
<path d="M 692.88 221.28 L 669.96 198.24 L 692.88 175.32 L 715.92 198.24 L 692.88 221.28 Z" stroke="rgb(0,0,0)" fill="none" stroke-width="3.36" fill-rule="evenodd" />
<path d="M 681.60 186.96 L 704.16 209.52" stroke="rgb(0,0,0)" fill="none" stroke-width="1.44" fill-rule="evenodd" />
<path d="M 704.28 186.96 L 681.36 209.64" stroke="rgb(0,0,0)" fill="none" stroke-width="1.44" fill-rule="evenodd" />
<path d="M 687.84 183.48 L 698.28 183.48 L 692.76 196.20 L 687.60 183.48 L 687.84 183.48 Z" stroke="none" fill="rgb(0,0,0)" stroke-width="1" fill-rule="evenodd" />
<path d="M 687.84 183.48 L 698.28 183.48 L 692.76 196.20 L 687.60 183.48 L 687.84 183.48" stroke="rgb(0,0,0)" fill="none" stroke-width="1.44" fill-rule="evenodd" />
<path d="M 562.32 215.64 L 597.12 215.64 L 597.12 180.84 L 562.32 180.84 Z" stroke="none" fill="rgb(170,255,170)" stroke-width="1" fill-rule="evenodd" />
<path d="M 562.32 215.64 L 597.12 215.64 L 597.12 180.84 L 562.32 180.84 Z" stroke="rgb(0,0,0)" fill="none" stroke-width="3.36" fill-rule="evenodd" />
<path d="M 563.16 181.92 L 596.16 214.68" stroke="rgb(0,0,0)" fill="none" stroke-width="1.44" fill-rule="evenodd" />
<path d="M 596.16 181.92 L 563.16 214.68" stroke="rgb(0,0,0)" fill="none" stroke-width="1.44" fill-rule="evenodd" />
<path d="M 574.68 182.52 L 585.12 182.52 L 579.60 195.24 L 574.44 182.52 L 574.68 182.52 Z" stroke="none" fill="rgb(0,0,0)" stroke-width="1" fill-rule="evenodd" />
<path d="M 574.68 182.52 L 585.12 182.52 L 579.60 195.24 L 574.44 182.52 L 574.68 182.52" stroke="rgb(0,0,0)" fill="none" stroke-width="1.44" fill-rule="evenodd" />
<path d="M 443.40 161.28 L 490.80 161.28 L 490.80 129.72 L 443.40 129.72 Z" stroke="none" fill="rgb(128,255,255)" stroke-width="1" fill-rule="evenodd" />
<path d="M 443.40 161.28 L 490.80 161.28 L 490.80 129.72 L 443.40 129.72 Z" stroke="rgb(0,0,0)" fill="none" stroke-width="3.36" fill-rule="evenodd" />
<path d="M 443.76 130.44 L 490.44 160.56" stroke="rgb(0,0,0)" fill="none" stroke-width="1.44" fill-rule="evenodd" />
<path d="M 490.56 130.44 L 443.52 160.56" stroke="rgb(0,0,0)" fill="none" stroke-width="1.44" fill-rule="evenodd" />
<path d="M 467.16 132.12 L 467.04 132.84 L 466.80 133.56 L 466.44 134.28 L 465.84 135.00 L 465.00 135.60 L 464.40 135.96 L 463.56 136.32 L 462.48 136.68 L 461.52 136.80 L 460.20 136.92 L 458.64 136.80 L 457.56 136.56 L 456.48 136.08 L 455.28 135.48 L 454.56 134.76 L 453.96 133.92 L 453.48 133.20 L 453.36 132.24" stroke="rgb(0,0,0)" fill="none" stroke-width="1.44" fill-rule="evenodd" />
<path d="M 480.72 132.12 L 480.60 132.84 L 480.48 133.56 L 480.00 134.28 L 479.40 135.00 L 478.68 135.60 L 477.96 135.96 L 477.12 136.32 L 476.16 136.68 L 475.20 136.80 L 473.88 136.92 L 472.32 136.80 L 471.24 136.56 L 470.04 136.08 L 468.96 135.48 L 468.12 134.76 L 467.52 133.92 L 467.16 133.20 L 467.04 132.24" stroke="rgb(0,0,0)" fill="none" stroke-width="1.44" fill-rule="evenodd" />
<path d="M 562.32 162.96 L 597.12 162.96 L 597.12 128.16 L 562.32 128.16 Z" stroke="none" fill="rgb(170,255,170)" stroke-width="1" fill-rule="evenodd" />
<path d="M 562.32 162.96 L 597.12 162.96 L 597.12 128.16 L 562.32 128.16 Z" stroke="rgb(0,0,0)" fill="none" stroke-width="3.36" fill-rule="evenodd" />
<path d="M 563.16 129.24 L 596.16 162.00" stroke="rgb(0,0,0)" fill="none" stroke-width="1.44" fill-rule="evenodd" />
<path d="M 596.16 129.24 L 563.16 162.00" stroke="rgb(0,0,0)" fill="none" stroke-width="1.44" fill-rule="evenodd" />
<path d="M 579.72 131.28 L 579.60 132.00 L 579.48 132.60 L 579.24 133.20 L 578.88 133.68 L 578.40 134.28 L 577.92 134.64 L 577.56 134.88 L 576.84 135.24 L 576.24 135.36 L 575.52 135.48 L 574.56 135.24 L 573.96 135.12 L 573.24 134.76 L 572.52 134.16 L 572.04 133.56 L 571.68 132.84 L 571.44 132.24 L 571.32 131.40" stroke="rgb(0,0,0)" fill="none" stroke-width="1.44" fill-rule="evenodd" />
<path d="M 587.88 131.28 L 587.76 132.00 L 587.64 132.60 L 587.40 133.20 L 587.04 133.68 L 586.56 134.28 L 586.20 134.64 L 585.72 134.88 L 585.12 135.24 L 584.52 135.36 L 583.68 135.48 L 582.72 135.24 L 582.12 135.12 L 581.40 134.76 L 580.68 134.16 L 580.32 133.56 L 579.96 132.84 L 579.60 132.24 L 579.60 131.40" stroke="rgb(0,0,0)" fill="none" stroke-width="1.44" fill-rule="evenodd" />
<path d="M 692.88 168.60 L 669.96 145.56 L 692.88 122.64 L 715.92 145.56 L 692.88 168.60 Z" stroke="none" fill="rgb(255,128,128)" stroke-width="1" fill-rule="evenodd" />
<path d="M 692.88 168.60 L 669.96 145.56 L 692.88 122.64 L 715.92 145.56 L 692.88 168.60 Z" stroke="rgb(0,0,0)" fill="none" stroke-width="3.36" fill-rule="evenodd" />
<path d="M 681.60 134.40 L 704.16 156.84" stroke="rgb(0,0,0)" fill="none" stroke-width="1.44" fill-rule="evenodd" />
<path d="M 704.28 134.40 L 681.36 157.08" stroke="rgb(0,0,0)" fill="none" stroke-width="1.44" fill-rule="evenodd" />
<path d="M 693.00 133.20 L 693.00 133.92 L 692.88 134.52 L 692.64 135.12 L 692.40 135.72 L 691.92 136.20 L 691.56 136.68 L 691.08 136.92 L 690.60 137.28 L 690.00 137.40 L 689.28 137.52 L 688.44 137.28 L 687.96 137.16 L 687.24 136.80 L 686.64 136.20 L 686.28 135.60 L 685.92 134.88 L 685.68 134.16 L 685.68 133.32" stroke="rgb(0,0,0)" fill="none" stroke-width="1.44" fill-rule="evenodd" />
<path d="M 700.32 133.20 L 700.32 133.92 L 700.20 134.52 L 699.96 135.12 L 699.60 135.72 L 699.24 136.20 L 698.88 136.68 L 698.40 136.92 L 697.80 137.28 L 697.32 137.40 L 696.60 137.52 L 695.76 137.28 L 695.16 137.16 L 694.56 136.80 L 693.96 136.20 L 693.48 135.60 L 693.24 134.88 L 693.00 134.16 L 692.88 133.32" stroke="rgb(0,0,0)" fill="none" stroke-width="1.44" fill-rule="evenodd" />
<path d="M 443.40 108.60 L 490.80 108.60 L 490.80 77.04 L 443.40 77.04 Z" stroke="none" fill="rgb(128,255,255)" stroke-width="1" fill-rule="evenodd" />
<path d="M 443.40 108.60 L 490.80 108.60 L 490.80 77.04 L 443.40 77.04 Z" stroke="rgb(0,0,0)" fill="none" stroke-width="3.36" fill-rule="evenodd" />
<path d="M 443.76 77.88 L 490.44 108.00" stroke="rgb(0,0,0)" fill="none" stroke-width="1.44" fill-rule="evenodd" />
<path d="M 490.56 77.88 L 443.52 108.00" stroke="rgb(0,0,0)" fill="none" stroke-width="1.44" fill-rule="evenodd" />
<path d="M 460.08 104.76 L 467.16 97.68 L 474.00 104.64" stroke="rgb(0,0,0)" fill="none" stroke-width="1.44" fill-rule="evenodd" />
<path d="M 692.88 115.92 L 669.96 93.00 L 692.88 69.96 L 715.92 93.00 L 692.88 115.92 Z" stroke="none" fill="rgb(255,128,128)" stroke-width="1" fill-rule="evenodd" />
<path d="M 692.88 115.92 L 669.96 93.00 L 692.88 69.96 L 715.92 93.00 L 692.88 115.92 Z" stroke="rgb(0,0,0)" fill="none" stroke-width="3.36" fill-rule="evenodd" />
<path d="M 681.60 81.72 L 704.16 104.28" stroke="rgb(0,0,0)" fill="none" stroke-width="1.44" fill-rule="evenodd" />
<path d="M 704.28 81.72 L 681.36 104.40" stroke="rgb(0,0,0)" fill="none" stroke-width="1.44" fill-rule="evenodd" />
<path d="M 686.04 104.76 L 693.12 97.68 L 699.96 104.64" stroke="rgb(0,0,0)" fill="none" stroke-width="1.44" fill-rule="evenodd" />
<path d="M 562.32 110.28 L 597.12 110.28 L 597.12 75.48 L 562.32 75.48 Z" stroke="none" fill="rgb(170,255,170)" stroke-width="1" fill-rule="evenodd" />
<path d="M 562.32 110.28 L 597.12 110.28 L 597.12 75.48 L 562.32 75.48 Z" stroke="rgb(0,0,0)" fill="none" stroke-width="3.36" fill-rule="evenodd" />
<path d="M 563.16 76.56 L 596.16 109.32" stroke="rgb(0,0,0)" fill="none" stroke-width="1.44" fill-rule="evenodd" />
<path d="M 596.16 76.56 L 563.16 109.32" stroke="rgb(0,0,0)" fill="none" stroke-width="1.44" fill-rule="evenodd" />
<path d="M 572.76 106.44 L 579.84 99.24 L 586.68 106.32" stroke="rgb(0,0,0)" fill="none" stroke-width="1.44" fill-rule="evenodd" />
<path d="M 443.40 55.80 L 490.80 55.80 L 490.80 24.24 L 443.40 24.24 Z" stroke="none" fill="rgb(128,255,255)" stroke-width="1" fill-rule="evenodd" />
<path d="M 443.40 55.80 L 490.80 55.80 L 490.80 24.24 L 443.40 24.24 Z" stroke="rgb(0,0,0)" fill="none" stroke-width="3.36" fill-rule="evenodd" />
<path d="M 443.76 25.08 L 490.44 55.20" stroke="rgb(0,0,0)" fill="none" stroke-width="1.44" fill-rule="evenodd" />
<path d="M 490.56 25.08 L 443.52 55.20" stroke="rgb(0,0,0)" fill="none" stroke-width="1.44" fill-rule="evenodd" />
<path d="M 449.28 39.96 C 449.28 45.12 457.20 49.20 467.04 49.20 C 476.88 49.20 484.92 45.12 484.92 39.96 C 484.92 34.92 476.88 30.84 467.04 30.84 C 457.20 30.84 449.28 34.92 449.28 39.96" stroke="rgb(0,0,0)" fill="none" stroke-width="1.44" fill-rule="evenodd" />
<path d="M 562.20 57.48 L 597.00 57.48 L 597.00 22.68 L 562.20 22.68 Z" stroke="none" fill="rgb(170,255,170)" stroke-width="1" fill-rule="evenodd" />
<path d="M 562.20 57.48 L 597.00 57.48 L 597.00 22.68 L 562.20 22.68 Z" stroke="rgb(0,0,0)" fill="none" stroke-width="3.36" fill-rule="evenodd" />
<path d="M 563.04 23.76 L 596.04 56.52" stroke="rgb(0,0,0)" fill="none" stroke-width="1.44" fill-rule="evenodd" />
<path d="M 596.04 23.76 L 563.04 56.52" stroke="rgb(0,0,0)" fill="none" stroke-width="1.44" fill-rule="evenodd" />
<path d="M 564.72 40.08 C 564.72 44.28 571.32 47.76 579.48 47.76 C 587.64 47.76 594.24 44.28 594.24 40.08 C 594.24 35.88 587.64 32.40 579.48 32.40 C 571.32 32.40 564.72 35.88 564.72 40.08" stroke="rgb(0,0,0)" fill="none" stroke-width="1.44" fill-rule="evenodd" />
<path d="M 692.88 63.12 L 669.96 40.20 L 692.88 17.16 L 715.92 40.20 L 692.88 63.12 Z" stroke="none" fill="rgb(255,128,128)" stroke-width="1" fill-rule="evenodd" />
<path d="M 692.88 63.12 L 669.96 40.20 L 692.88 17.16 L 715.92 40.20 L 692.88 63.12 Z" stroke="rgb(0,0,0)" fill="none" stroke-width="3.36" fill-rule="evenodd" />
<path d="M 681.60 28.92 L 704.16 51.48" stroke="rgb(0,0,0)" fill="none" stroke-width="1.44" fill-rule="evenodd" />
<path d="M 704.28 28.92 L 681.36 51.60" stroke="rgb(0,0,0)" fill="none" stroke-width="1.44" fill-rule="evenodd" />
<path d="M 676.80 40.20 C 676.80 44.76 684.12 48.60 693.00 48.60 C 701.88 48.60 709.20 44.76 709.20 40.20 C 709.20 35.52 701.88 31.80 693.00 31.80 C 684.12 31.80 676.80 35.52 676.80 40.20" stroke="rgb(0,0,0)" fill="none" stroke-width="1.44" fill-rule="evenodd" />
<path d="M 348.48 385.92 L 348.00 386.04 L 347.28 386.04 L 346.68 386.16 L 345.84 386.28 L 345.00 386.52 L 344.04 386.88 L 343.08 387.24 L 342.00 387.96 L 340.80 388.80 L 339.72 390.00 L 338.64 391.44 L 337.92 392.88 L 337.44 393.96 L 337.20 395.16 L 337.08 396.36 L 336.96 397.44 L 336.00 397.44 L 335.04 397.56 L 334.44 397.68 L 333.36 398.04 L 332.16 398.52 L 330.96 399.12 L 329.76 399.96 L 328.68 400.92 L 327.84 402.00 L 327.00 403.20 L 326.40 404.40 L 325.92 405.96 L 325.68 406.92 L 325.56 408.00 L 325.56 408.96 L 325.56 409.92 L 325.68 411.12 L 325.92 412.08 L 326.52 413.52 L 327.12 414.84 L 327.96 415.92 L 328.80 416.88 L 329.76 417.84 L 331.08 418.68 L 332.28 419.28 L 333.48 419.76 L 334.44 420.12 L 335.28 420.24 L 336.00 420.36 L 336.96 420.36 L 337.08 421.68 L 337.08 422.28 L 337.20 423.00 L 337.44 423.72 L 337.80 424.80 L 338.52 426.24 L 339.60 427.68 L 340.68 429.00 L 341.88 429.84 L 342.96 430.56 L 343.92 431.04 L 344.88 431.40 L 345.84 431.64 L 346.68 431.76 L 347.28 431.88 L 347.88 431.88 L 348.36 431.88 L 349.08 431.88 L 350.28 431.76 L 350.64 431.64 L 351.12 431.52 L 352.08 431.28 L 353.04 430.92 L 353.88 430.56 L 354.96 429.84 L 356.16 428.88 L 357.36 427.68 L 358.44 426.24 L 359.04 424.80 L 359.40 423.84 L 359.64 422.76 L 359.88 422.04 L 359.88 421.32 L 359.88 420.36 L 360.72 420.36 L 361.32 420.36 L 362.40 420.12 L 363.48 419.76 L 364.68 419.40 L 365.88 418.68 L 367.08 417.84 L 368.16 416.88 L 369.00 415.92 L 369.84 414.72 L 370.56 413.52 L 371.04 412.08 L 371.28 411.00 L 371.40 409.92 L 371.40 408.96 L 371.40 407.88 L 371.28 406.80 L 371.04 405.72 L 370.56 404.28 L 369.84 403.08 L 369.00 401.88 L 368.16 400.80 L 368.16 400.92 L 367.08 399.96 L 365.88 399.12 L 364.68 398.52 L 363.48 398.04 L 362.40 397.68 L 361.68 397.56 L 360.96 397.44 L 359.88 397.44 L 359.88 396.24 L 359.64 394.56 L 359.28 393.60 L 358.20 391.56 L 357.24 390.00 L 356.04 388.92 L 354.84 387.96 L 353.88 387.36 L 352.92 386.88 L 351.96 386.52 L 351.12 386.28 L 350.28 386.16 L 349.56 386.04 L 348.96 386.04 L 348.48 385.92 Z" stroke="none" fill="rgb(255,255,128)" stroke-width="1" fill-rule="evenodd" />
<path d="M 348.48 385.92 L 348.00 386.04 L 347.28 386.04 L 346.68 386.16 L 345.84 386.28 L 345.00 386.52 L 344.04 386.88 L 343.08 387.24 L 342.00 387.96 L 340.80 388.80 L 339.72 390.00 L 338.64 391.44 L 337.92 392.88 L 337.44 393.96 L 337.20 395.16 L 337.08 396.36 L 336.96 397.44 L 336.00 397.44 L 335.04 397.56 L 334.44 397.68 L 333.36 398.04 L 332.16 398.52 L 330.96 399.12 L 329.76 399.96 L 328.68 400.92 L 327.84 402.00 L 327.00 403.20 L 326.40 404.40 L 325.92 405.96 L 325.68 406.92 L 325.56 408.00 L 325.56 408.96 L 325.56 409.92 L 325.68 411.12 L 325.92 412.08 L 326.52 413.52 L 327.12 414.84 L 327.96 415.92 L 328.80 416.88 L 329.76 417.84 L 331.08 418.68 L 332.28 419.28 L 333.48 419.76 L 334.44 420.12 L 335.28 420.24 L 336.00 420.36 L 336.96 420.36 L 337.08 421.68 L 337.08 422.28 L 337.20 423.00 L 337.44 423.72 L 337.80 424.80 L 338.52 426.24 L 339.60 427.68 L 340.68 429.00 L 341.88 429.84 L 342.96 430.56 L 343.92 431.04 L 344.88 431.40 L 345.84 431.64 L 346.68 431.76 L 347.28 431.88 L 347.88 431.88 L 348.36 431.88 L 349.08 431.88 L 350.28 431.76 L 350.64 431.64 L 351.12 431.52 L 352.08 431.28 L 353.04 430.92 L 353.88 430.56 L 354.96 429.84 L 356.16 428.88 L 357.36 427.68 L 358.44 426.24 L 359.04 424.80 L 359.40 423.84 L 359.64 422.76 L 359.88 422.04 L 359.88 421.32 L 359.88 420.36 L 360.72 420.36 L 361.32 420.36 L 362.40 420.12 L 363.48 419.76 L 364.68 419.40 L 365.88 418.68 L 367.08 417.84 L 368.16 416.88 L 369.00 415.92 L 369.84 414.72 L 370.56 413.52 L 371.04 412.08 L 371.28 411.00 L 371.40 409.92 L 371.40 408.96 L 371.40 407.88 L 371.28 406.80 L 371.04 405.72 L 370.56 404.28 L 369.84 403.08 L 369.00 401.88 L 368.16 400.80 L 368.16 400.92 L 367.08 399.96 L 365.88 399.12 L 364.68 398.52 L 363.48 398.04 L 362.40 397.68 L 361.68 397.56 L 360.96 397.44 L 359.88 397.44 L 359.88 396.24 L 359.64 394.56 L 359.28 393.60 L 358.20 391.56 L 357.24 390.00 L 356.04 388.92 L 354.84 387.96 L 353.88 387.36 L 352.92 386.88 L 351.96 386.52 L 351.12 386.28 L 350.28 386.16 L 349.56 386.04 L 348.96 386.04 L 348.48 385.92 Z" stroke="rgb(0,0,0)" fill="none" stroke-width="3.36" fill-rule="evenodd" />
<path d="M 443.52 424.56 L 490.92 424.56 L 490.92 393.00 L 443.52 393.00 Z" stroke="none" fill="rgb(128,255,255)" stroke-width="1" fill-rule="evenodd" />
<path d="M 443.52 424.56 L 490.92 424.56 L 490.92 393.00 L 443.52 393.00 Z" stroke="rgb(0,0,0)" fill="none" stroke-width="3.36" fill-rule="evenodd" />
<path d="M 562.32 426.24 L 597.12 426.24 L 597.12 391.44 L 562.32 391.44 Z" stroke="none" fill="rgb(170,255,170)" stroke-width="1" fill-rule="evenodd" />
<path d="M 562.32 426.24 L 597.12 426.24 L 597.12 391.44 L 562.32 391.44 Z" stroke="rgb(0,0,0)" fill="none" stroke-width="3.36" fill-rule="evenodd" />
<path d="M 693.00 431.88 L 670.08 408.96 L 693.00 385.92 L 716.04 408.96 L 693.00 431.88 Z" stroke="none" fill="rgb(255,128,128)" stroke-width="1" fill-rule="evenodd" />
<path d="M 693.00 431.88 L 670.08 408.96 L 693.00 385.92 L 716.04 408.96 L 693.00 431.88 Z" stroke="rgb(0,0,0)" fill="none" stroke-width="3.36" fill-rule="evenodd" />
<path d="M 692.88 548.16 L 669.96 525.24 L 692.88 502.32 L 715.92 525.24 L 692.88 548.16 Z" stroke="none" fill="rgb(255,128,128)" stroke-width="1" fill-rule="evenodd" />
<path d="M 692.88 548.16 L 669.96 525.24 L 692.88 502.32 L 715.92 525.24 L 692.88 548.16 Z" stroke="rgb(0,0,0)" fill="none" stroke-width="3.36" fill-rule="evenodd" />
<path d="M 669.96 525.00 L 669.96 491.52" stroke="rgb(0,0,0)" fill="none" stroke-width="3.36" fill-rule="evenodd" />
<path d="M 562.32 542.64 L 597.12 542.64 L 597.12 507.84 L 562.32 507.84 Z" stroke="none" fill="rgb(170,255,170)" stroke-width="1" fill-rule="evenodd" />
<path d="M 562.32 542.64 L 597.12 542.64 L 597.12 507.84 L 562.32 507.84 Z" stroke="rgb(0,0,0)" fill="none" stroke-width="3.36" fill-rule="evenodd" />
<path d="M 562.32 508.08 L 562.32 491.16" stroke="rgb(0,0,0)" fill="none" stroke-width="3.36" fill-rule="evenodd" />
<path d="M 443.04 540.96 L 490.56 540.96 L 490.56 509.28 L 443.04 509.28 Z" stroke="none" fill="rgb(128,255,255)" stroke-width="1" fill-rule="evenodd" />
<path d="M 443.04 540.96 L 490.56 540.96 L 490.56 509.28 L 443.04 509.28 Z" stroke="rgb(0,0,0)" fill="none" stroke-width="3.36" fill-rule="evenodd" />
<path d="M 443.04 515.04 L 443.04 491.52" stroke="rgb(0,0,0)" fill="none" stroke-width="3.36" fill-rule="evenodd" />
<path d="M 348.36 502.20 L 347.76 502.20 L 347.16 502.20 L 346.56 502.32 L 345.72 502.44 L 344.88 502.68 L 343.92 503.04 L 342.96 503.52 L 341.88 504.12 L 340.68 505.08 L 339.60 506.16 L 338.52 507.60 L 337.80 509.04 L 337.32 510.24 L 336.96 511.44 L 336.84 512.52 L 336.84 513.60 L 335.88 513.60 L 334.92 513.84 L 334.20 513.96 L 333.24 514.20 L 332.04 514.68 L 330.84 515.40 L 329.64 516.24 L 328.56 517.08 L 327.72 518.16 L 326.88 519.36 L 326.28 520.56 L 325.80 522.12 L 325.56 523.08 L 325.44 524.16 L 325.44 525.12 L 325.44 526.20 L 325.56 527.28 L 325.80 528.36 L 326.40 529.68 L 327.00 531.00 L 327.84 532.08 L 328.68 533.04 L 329.64 534.12 L 330.84 534.96 L 332.16 535.56 L 333.24 536.04 L 334.32 536.28 L 335.16 536.52 L 335.88 536.52 L 336.84 536.64 L 336.84 537.84 L 336.96 538.44 L 337.08 539.16 L 337.32 539.88 L 337.68 540.96 L 338.40 542.40 L 339.48 543.96 L 340.56 545.16 L 341.76 546.00 L 342.84 546.72 L 343.80 547.20 L 344.76 547.56 L 345.72 547.80 L 346.56 547.92 L 347.16 548.04 L 347.76 548.04 L 348.24 548.04 L 348.84 548.04 L 350.16 547.92 L 350.52 547.80 L 351.00 547.80 L 351.96 547.56 L 352.92 547.08 L 353.76 546.72 L 354.84 546.00 L 356.04 545.04 L 357.24 543.84 L 358.20 542.40 L 358.92 541.08 L 359.28 540.00 L 359.52 538.92 L 359.64 538.32 L 359.76 537.48 L 359.76 536.64 L 360.60 536.52 L 361.20 536.52 L 362.28 536.28 L 363.36 536.04 L 364.56 535.56 L 365.76 534.96 L 366.96 534.12 L 368.04 533.16 L 368.88 532.08 L 369.72 530.88 L 370.32 529.68 L 370.80 528.24 L 371.16 527.16 L 371.28 526.08 L 371.28 525.12 L 371.28 524.16 L 371.04 522.96 L 370.92 522.00 L 370.44 520.56 L 369.72 519.24 L 368.88 518.04 L 368.04 517.08 L 368.04 517.08 L 366.96 516.12 L 365.76 515.28 L 364.56 514.68 L 363.36 514.20 L 362.28 513.84 L 361.56 513.72 L 360.72 513.72 L 359.76 513.60 L 359.76 512.40 L 359.52 510.72 L 359.16 509.76 L 358.08 507.72 L 357.12 506.16 L 355.92 505.08 L 354.72 504.12 L 353.76 503.52 L 352.80 503.04 L 351.84 502.68 L 351.00 502.44 L 350.04 502.32 L 349.44 502.20 L 348.84 502.20 L 348.36 502.20 Z" stroke="none" fill="rgb(255,255,128)" stroke-width="1" fill-rule="evenodd" />
<path d="M 348.36 502.20 L 347.76 502.20 L 347.16 502.20 L 346.56 502.32 L 345.72 502.44 L 344.88 502.68 L 343.92 503.04 L 342.96 503.52 L 341.88 504.12 L 340.68 505.08 L 339.60 506.16 L 338.52 507.60 L 337.80 509.04 L 337.32 510.24 L 336.96 511.44 L 336.84 512.52 L 336.84 513.60 L 335.88 513.60 L 334.92 513.84 L 334.20 513.96 L 333.24 514.20 L 332.04 514.68 L 330.84 515.40 L 329.64 516.24 L 328.56 517.08 L 327.72 518.16 L 326.88 519.36 L 326.28 520.56 L 325.80 522.12 L 325.56 523.08 L 325.44 524.16 L 325.44 525.12 L 325.44 526.20 L 325.56 527.28 L 325.80 528.36 L 326.40 529.68 L 327.00 531.00 L 327.84 532.08 L 328.68 533.04 L 329.64 534.12 L 330.84 534.96 L 332.16 535.56 L 333.24 536.04 L 334.32 536.28 L 335.16 536.52 L 335.88 536.52 L 336.84 536.64 L 336.84 537.84 L 336.96 538.44 L 337.08 539.16 L 337.32 539.88 L 337.68 540.96 L 338.40 542.40 L 339.48 543.96 L 340.56 545.16 L 341.76 546.00 L 342.84 546.72 L 343.80 547.20 L 344.76 547.56 L 345.72 547.80 L 346.56 547.92 L 347.16 548.04 L 347.76 548.04 L 348.24 548.04 L 348.84 548.04 L 350.16 547.92 L 350.52 547.80 L 351.00 547.80 L 351.96 547.56 L 352.92 547.08 L 353.76 546.72 L 354.84 546.00 L 356.04 545.04 L 357.24 543.84 L 358.20 542.40 L 358.92 541.08 L 359.28 540.00 L 359.52 538.92 L 359.64 538.32 L 359.76 537.48 L 359.76 536.64 L 360.60 536.52 L 361.20 536.52 L 362.28 536.28 L 363.36 536.04 L 364.56 535.56 L 365.76 534.96 L 366.96 534.12 L 368.04 533.16 L 368.88 532.08 L 369.72 530.88 L 370.32 529.68 L 370.80 528.24 L 371.16 527.16 L 371.28 526.08 L 371.28 525.12 L 371.28 524.16 L 371.04 522.96 L 370.92 522.00 L 370.44 520.56 L 369.72 519.24 L 368.88 518.04 L 368.04 517.08 L 368.04 517.08 L 366.96 516.12 L 365.76 515.28 L 364.56 514.68 L 363.36 514.20 L 362.28 513.84 L 361.56 513.72 L 360.72 513.72 L 359.76 513.60 L 359.76 512.40 L 359.52 510.72 L 359.16 509.76 L 358.08 507.72 L 357.12 506.16 L 355.92 505.08 L 354.72 504.12 L 353.76 503.52 L 352.80 503.04 L 351.84 502.68 L 351.00 502.44 L 350.04 502.32 L 349.44 502.20 L 348.84 502.20 L 348.36 502.20 Z" stroke="rgb(0,0,0)" fill="none" stroke-width="3.36" fill-rule="evenodd" />
<path d="M 325.44 525.00 L 325.44 491.16" stroke="rgb(0,0,0)" fill="none" stroke-width="3.36" fill-rule="evenodd" />
<text x="249.60" y="570.60" font-size="14" fill="blue">HQ / Ground Units – Infantry (2 Slides)</text>
<text x="119.16" y="364.20" font-size="14" fill="blue">Infantry</text>
<text x="100.32" y="306.60" font-size="14" fill="blue">Light Infantry</text>
<text x="83.28" y="249.00" font-size="14" fill="blue">Motorized Infantry</text>
<text x="87.96" y="133.68" font-size="14" fill="blue">Airborne Infantry</text>
<text x="80.76" y="80.52" font-size="14" fill="blue">Air Assault Infantry</text>
<text x="98.40" y="34.32" font-size="14" fill="blue">Mech Infantry</text>
<text x="85.56" y="191.28" font-size="14" fill="blue">Mountain Infantry</text>
</svg>